<svg width="15" height="15" viewBox="0 0 15 15" fill="none" xmlns="http://www.w3.org/2000/svg">
<path d="M6.89333 12.0402L10.0833 6.02008H7.88333V2.12473L4.58333 8.14482H6.89333V12.0402ZM7.33333 14.1649C6.31889 14.1649 5.36556 13.979 4.47333 13.6072C3.58111 13.2353 2.805 12.7307 2.145 12.0933C1.485 11.4559 0.9625 10.7063 0.5775 9.8446C0.1925 8.98291 0 8.06219 0 7.08245C0 6.10271 0.1925 5.18199 0.5775 4.32029C0.9625 3.4586 1.485 2.70904 2.145 2.07162C2.805 1.4342 3.58111 0.929571 4.47333 0.557743C5.36556 0.185914 6.31889 0 7.33333 0C8.34778 0 9.30111 0.185914 10.1933 0.557743C11.0856 0.929571 11.8617 1.4342 12.5217 2.07162C13.1817 2.70904 13.7042 3.4586 14.0892 4.32029C14.4742 5.18199 14.6667 6.10271 14.6667 7.08245C14.6667 8.06219 14.4742 8.98291 14.0892 9.8446C13.7042 10.7063 13.1817 11.4559 12.5217 12.0933C11.8617 12.7307 11.0856 13.2353 10.1933 13.6072C9.30111 13.979 8.34778 14.1649 7.33333 14.1649Z" fill="#894189"/>
<path d="M7.26667 11.5894L10.1667 6.11663H8.16667V2.57541L5.16667 8.04821H7.26667V11.5894ZM7.66667 13.521C6.74444 13.521 5.87778 13.352 5.06667 13.014C4.25556 12.6759 3.55 12.2172 2.95 11.6377C2.35 11.0582 1.875 10.3768 1.525 9.59347C1.175 8.81011 1 7.97309 1 7.08242C1 6.19175 1.175 5.35473 1.525 4.57137C1.875 3.78801 2.35 3.10659 2.95 2.52712C3.55 1.94764 4.25556 1.48889 5.06667 1.15087C5.87778 0.812842 6.74444 0.643829 7.66667 0.643829C8.58889 0.643829 9.45556 0.812842 10.2667 1.15087C11.0778 1.48889 11.7833 1.94764 12.3833 2.52712C12.9833 3.10659 13.4583 3.78801 13.8083 4.57137C14.1583 5.35473 14.3333 6.19175 14.3333 7.08242C14.3333 7.97309 14.1583 8.81011 13.8083 9.59347C13.4583 10.3768 12.9833 11.0582 12.3833 11.6377C11.7833 12.2172 11.0778 12.6759 10.2667 13.014C9.45556 13.352 8.58889 13.521 7.66667 13.521Z" fill="white"/>
</svg>
