<svg width="24" height="21" viewBox="0 0 24 21" fill="none" xmlns="http://www.w3.org/2000/svg">
<path d="M11.5858 20.8932L11.5777 20.8897L11.552 20.8757C11.4018 20.7931 11.2529 20.7083 11.1052 20.6214C9.32928 19.5661 7.66965 18.3265 6.15383 16.923C3.46933 14.4182 0.625 10.7012 0.625 6.12319C0.625 2.70719 3.49967 -0.00180931 6.96933 -0.00180931C7.93388 -0.00653364 8.88708 0.206255 9.75804 0.62073C10.629 1.03521 11.3953 1.6407 12 2.39219C12.6048 1.64055 13.3713 1.03496 14.2425 0.620476C15.1137 0.205994 16.0671 -0.00670932 17.0318 -0.00180931C20.5003 -0.00180931 23.375 2.70719 23.375 6.12319C23.375 10.7024 20.5307 14.4194 17.8462 16.9219C16.3304 18.3253 14.6707 19.565 12.8948 20.6202C12.7471 20.7075 12.5982 20.7927 12.448 20.8757L12.4223 20.8897L12.4142 20.8944L12.4107 20.8955C12.2842 20.9625 12.1432 20.9976 12 20.9976C11.8568 20.9976 11.7158 20.9625 11.5893 20.8955L11.5858 20.8932Z" fill="white"/>
</svg>
